<?xml version="1.0" encoding="UTF-8"?>
<svg id="Layer_2" xmlns="http://www.w3.org/2000/svg" viewBox="0 0 1482.25 784.34">
  <defs>
    <style>
      .cls-1 {
        fill: #fff;
      }

      .cls-2 {
        fill: #fd961a;
      }
    </style>
  </defs>
  <g id="Rectangle">
    <g>
      <path class="cls-1" d="M101.7,759.58s66.07,24.76,145.98,24.76h608.02l293-277.87,60.25-465.49-5.91-40.98H334.68l-201.44,172.71-46.08,145.91,14.53,440.96Z"/>
      <g>
        <path class="cls-2" d="M944.87,0h-365.32c41.9,98.54,84.2,206.07,85.43,206.07h.01c29.5-20.03,60.34-48.6,89.47-70.76C815.96,88.55,879.74,41.91,944.72.1c.05-.03.11-.07.16-.1Z"/>
        <path class="cls-2" d="M759.28,501.37c-.04-.17-.03-.12,0,0h0Z"/>
        <path class="cls-2" d="M538.98,577.39c-1.85,1.16-3.89,2.92-4.8,3.54-56.53,38.28-111.14,85.84-168.27,125.48-29.97,20.79-73.41,50.83-118.23,77.93h368.28c-26.09-67.86-50.26-136.5-72.89-205.46-.56-1.71-2.57-2.45-4.09-1.5Z"/>
        <path class="cls-2" d="M1284.77,0h-146.58c-19.5,28.84-43.51,57.93-65.13,83.36-78.8,92.7-168.73,177.17-257.91,259.71-.58.54-.95,1.31-.89,2.1.13,1.77,1.98.92,3.81,1.51,79.48,25.81,168.43,39.69,240.53,85,33.79,21.23,57.16,47.9,4.83,65.95-28.78,9.92-70.79,12.78-101.26,13.9-67.51,2.5-135.65-5.04-202.86-10.07.04.14.06.2.06.2,26.89,93.21,54.35,187.53,77.68,282.69h447.72c109.07,0,197.49-88.42,197.49-197.49V197.49c0-109.07-88.42-197.49-197.49-197.49Z"/>
        <polygon class="cls-2" points="759.3 501.46 759.31 501.46 759.3 501.44 759.3 501.46"/>
        <path class="cls-2" d="M396.36,439.52c.59-.57.96-1.37.85-2.18-.19-1.47-1.78-1.08-3.48-1.73-20.4-7.72-46.47-12.28-68.03-18.82-44.42-13.49-155.06-48.86-181.35-85.7-23.56-32.99,35.09-44.47,56.87-47.99,38.13-6.17,76.72-5.58,114.84-5.2,43.66.44,87.03,1.99,130.48,6.21,1.92.19,3.44-1.58,2.96-3.45-23.92-93.16-48.87-186.23-67.7-280.65h-184.33C88.42,0,0,88.42,0,197.49v389.37c0,74.31,41.05,139.02,101.7,172.72,19.38-29.48,43.35-59.11,56.75-75.35,72.06-87.4,156.08-166.63,237.92-244.71Z"/>
      </g>
    </g>
  </g>
</svg>